<?xml version="1.0" encoding="utf-8"?>
<!-- Generator: Adobe Illustrator 23.0.3, SVG Export Plug-In . SVG Version: 6.00 Build 0)  -->
<svg version="1.1" id="Warstwa_1" xmlns="http://www.w3.org/2000/svg" xmlns:xlink="http://www.w3.org/1999/xlink" x="0px" y="0px"
	 viewBox="0 0 1227 200" style="enable-background:new 0 0 1227 200;" xml:space="preserve">
<style type="text/css">
	.st0{fill:#61DAFB;}
	.st1{opacity:4.000000e-02;stroke:#FFFFFF;stroke-miterlimit:10;enable-background:new    ;}
	.st2{opacity:8.000000e-02;stroke:#FFFFFF;stroke-miterlimit:10;enable-background:new    ;}
	.st3{fill-opacity:0;}
	.st4{fill:#333333;}
	.st5{font-family:'Aileron-Bold';}
	.st6{font-size:141.5311px;}
	.st7{fill:#FFFFFF;}
</style>
<polygon class="st0" points="0,150 0,50 86.6,0 173.2,50 173.2,150 86.6,200 "/>
<g>
	<polygon class="st1" points="0,49.5 86.6,99.5 86.6,-0.5 	"/>
	<polygon class="st1" points="0,149.5 86.6,199.5 86.6,99.5 	"/>
	<polygon class="st2" points="86.6,99.5 173.2,149.5 173.2,49.5 	"/>
	<polygon class="st3" points="86.6,99.5 0,49.5 0,149.5 	"/>
	<polygon class="st2" points="173.2,149.5 86.6,99.5 86.6,199.5 	"/>
	<polygon class="st2" points="173.2,49.5 86.6,-0.5 86.6,99.5 	"/>
</g>
<text transform="matrix(1 0 0 1 187.8824 149.5498)"><tspan x="0" y="0" class="st4 st5 st6">SMART</tspan><tspan x="489.4" y="0" class="st0 st5 st6">PORTAL</tspan></text>
<polygon class="st7" points="135.4,57.1 107.4,75.2 87.1,64.4 63.6,79.6 135.4,102.1 135.4,147.1 87.7,173.6 37.8,147.1 69.4,130.3 
	88.6,138.5 108.9,127 37.8,102.1 37.8,57.1 86.6,29.5 "/>
</svg>
