<?xml version="1.0" encoding="utf-8"?>
<!-- Generator: Adobe Illustrator 23.0.3, SVG Export Plug-In . SVG Version: 6.00 Build 0)  -->
<svg version="1.1" id="Warstwa_1" xmlns="http://www.w3.org/2000/svg" xmlns:xlink="http://www.w3.org/1999/xlink" x="0px" y="0px"
	 viewBox="0 0 173.2 200" style="enable-background:new 0 0 173.2 200;" xml:space="preserve">
<style type="text/css">
	.st0{fill:#61DAFB;}
	.st1{opacity:4.000000e-02;stroke:#FFFFFF;stroke-miterlimit:10;enable-background:new    ;}
	.st2{opacity:8.000000e-02;stroke:#FFFFFF;stroke-miterlimit:10;enable-background:new    ;}
	.st3{fill-opacity:0;}
	.st4{fill:#FFFFFF;}
</style>
<polygon class="st0" points="0,150 0,50 86.6,0 173.2,50 173.2,150 86.6,200 "/>
<g>
	<polygon class="st1" points="0,50 86.6,100 86.6,0 	"/>
	<polygon class="st1" points="0,150 86.6,200 86.6,100 	"/>
	<polygon class="st2" points="86.6,100 173.2,150 173.2,50 	"/>
	<polygon class="st3" points="86.6,100 0,50 0,150 	"/>
	<polygon class="st2" points="173.2,150 86.6,100 86.6,200 	"/>
	<polygon class="st2" points="173.2,50 86.6,0 86.6,100 	"/>
</g>
<polygon class="st4" points="135.4,55.6 107.4,73.7 87.1,62.9 63.6,78.1 135.4,100.5 135.4,145.5 87.7,172 37.8,145.5 69.4,128.8 
	88.6,137 108.9,125.4 37.8,100.5 37.8,55.6 86.6,28 "/>
</svg>
